<svg width="219" height="28" viewBox="0 0 219 28" fill="none" xmlns="http://www.w3.org/2000/svg">
<g clip-path="url(#clip0_9466_6192)">
<path d="M28 4.28453V0.400978H20V4.28453H12V0.400978H8.00762H8H4V4.28453H0V15.9352H4V19.8263H8V23.7099H12V27.601H20V23.7099H24V19.8263H28V15.9352H32V4.28453H28Z" fill="#4855CB"/>
<path d="M8 0.400978H4V4.28453H8V0.400978Z" fill="#4855CB"/>
<path d="M20 23.714V27.6051H12V23.714H8V19.8305H4V15.9393H0V4.28867H4V8.17223H8V15.9469H15.9924V23.714H20Z" fill="#4855CB"/>
<path d="M28 4.28453V0.400978H24H20V4.28453H16H12V0.400978H8V4.28453H4V8.17565H8V15.9428H12V19.8339H16V23.7174H24V19.8339H28V15.9428H31.9924V8.17565H32V4.28453H28Z" fill="#80F3CF"/>
</g>
<path d="M60.0595 17.8639L60.0456 7.99005H61.5581L61.5476 5.50288H55.9972L56.0024 7.99005H57.5166L57.5236 17.669H57.0519L51.3344 5.52202H49.1918L42.1463 20.3528H45.173L46.1999 18.172H52.645L51.5955 15.65H47.3887L50.264 9.54258L55.3306 20.3528H61.5598L61.5494 17.8657H60.0613L60.0595 17.8639Z" fill="#252D47"/>
<path d="M63.232 22.9191H71.9571V20.432H63.232V22.9191Z" fill="#80F3CF"/>
<path d="M73.4055 20.3545V5.90658H79.5355C80.4023 5.90658 81.1803 6.11022 81.8678 6.51575C82.5553 6.92129 83.1018 7.47303 83.5091 8.16749C83.9146 8.86195 84.1183 9.6504 84.1183 10.5311C84.1183 11.4118 83.9146 12.2333 83.5091 12.9556C83.1036 13.6779 82.557 14.2488 81.8678 14.6683C81.1803 15.0877 80.4023 15.2983 79.5355 15.2983H76.5018V20.3545H73.4055ZM76.4601 12.4909H79.2048C79.5216 12.4909 79.8105 12.4091 80.0716 12.2437C80.3327 12.0784 80.5468 11.8521 80.7121 11.5632C80.8775 11.2743 80.9593 10.9436 80.9593 10.5729C80.9593 10.2021 80.8775 9.8784 80.7121 9.6034C80.5468 9.3284 80.3344 9.10736 80.0716 8.94375C79.8105 8.7784 79.5216 8.6966 79.2048 8.6966H76.4601V12.4944V12.4909Z" fill="#252D47"/>
<path d="M85.1162 20.3523V9.43417H87.9445L88.0472 12.943L87.5511 12.1998C87.7304 11.6498 88.0019 11.1468 88.3657 10.6926C88.7295 10.2383 89.1628 9.878 89.6659 9.60823C90.1671 9.34019 90.6945 9.20617 91.2445 9.20617C91.4916 9.20617 91.7231 9.22357 91.9355 9.25838C92.1478 9.29319 92.3306 9.34367 92.482 9.41329L91.697 12.6123C91.5456 12.5444 91.3489 12.4783 91.1087 12.4157C90.8685 12.353 90.6231 12.3234 90.376 12.3234C90.0592 12.3234 89.7598 12.3826 89.4779 12.4992C89.1959 12.6158 88.9488 12.7812 88.7347 12.9952C88.5206 13.2093 88.357 13.46 88.2386 13.7489C88.122 14.0378 88.0629 14.3615 88.0629 14.7183V20.3523H85.111H85.1162Z" fill="#252D47"/>
<path d="M97.9792 20.5577C96.8653 20.5577 95.8749 20.314 95.0064 19.825C94.1396 19.3359 93.4556 18.6658 92.9526 17.8129C92.4496 16.9601 92.199 15.9906 92.199 14.9028C92.199 13.815 92.4496 12.8212 92.9526 11.9614C93.4556 11.1016 94.1396 10.428 95.0064 9.93892C95.8732 9.44984 96.8635 9.20617 97.9792 9.20617C99.0948 9.20617 100.083 9.44984 100.952 9.93892C101.819 10.428 102.503 11.1016 103.006 11.9614C103.507 12.8212 103.759 13.8011 103.759 14.9028C103.759 16.0046 103.509 16.9601 103.006 17.8129C102.503 18.6658 101.819 19.3376 100.952 19.825C100.085 20.314 99.0948 20.5577 97.9792 20.5577ZM97.9792 18.0201C98.5153 18.0201 98.9974 17.8826 99.4238 17.6076C99.8502 17.3326 100.184 16.9618 100.425 16.4936C100.665 16.0255 100.778 15.4963 100.766 14.9046C100.78 14.285 100.667 13.7384 100.425 13.2633C100.184 12.7881 99.8502 12.4174 99.4238 12.1494C98.9974 11.8813 98.5153 11.7473 97.9792 11.7473C97.4431 11.7473 96.9575 11.8848 96.5241 12.1598C96.0907 12.4348 95.7531 12.8073 95.5129 13.2737C95.2727 13.7419 95.1578 14.285 95.1718 14.9046C95.1578 15.4963 95.271 16.0255 95.5129 16.4936C95.7531 16.9618 96.0907 17.3326 96.5241 17.6076C96.9575 17.8826 97.4431 18.0201 97.9792 18.0201Z" fill="#252D47"/>
<path d="M109.305 20.5591C108.355 20.5591 107.499 20.3189 106.736 19.8368C105.972 19.3547 105.373 18.6846 104.94 17.8248C104.507 16.965 104.291 15.992 104.291 14.9042C104.291 13.8164 104.507 12.8261 104.94 11.9732C105.373 11.1204 105.969 10.4451 106.726 9.95077C107.483 9.45473 108.343 9.20758 109.305 9.20758C109.813 9.20758 110.306 9.28764 110.781 9.44428C111.256 9.60267 111.679 9.82023 112.05 10.0952C112.421 10.3702 112.724 10.6766 112.959 11.0142C113.192 11.3519 113.329 11.6982 113.371 12.0568L112.628 12.2012V5.08085H115.538V20.3537H112.772L112.649 17.8352L113.227 17.917C113.213 18.2477 113.096 18.5715 112.875 18.8865C112.654 19.2033 112.362 19.4887 111.998 19.7428C111.634 19.9969 111.22 20.1971 110.76 20.3416C110.299 20.486 109.813 20.5591 109.305 20.5591ZM109.946 18.1242C110.51 18.1242 110.995 17.9867 111.401 17.7117C111.806 17.4367 112.127 17.059 112.36 16.5769C112.593 16.0947 112.711 15.5378 112.711 14.906C112.711 14.2742 112.595 13.6911 112.36 13.2038C112.127 12.7147 111.806 12.337 111.401 12.069C110.995 11.8009 110.51 11.6669 109.946 11.6669C109.382 11.6669 108.935 11.8009 108.522 12.069C108.11 12.337 107.789 12.7164 107.563 13.2038C107.337 13.6928 107.222 14.2603 107.222 14.906C107.222 15.5517 107.335 16.0965 107.563 16.5769C107.789 17.059 108.11 17.4367 108.522 17.7117C108.935 17.9867 109.41 18.1242 109.946 18.1242Z" fill="#252D47"/>
<path d="M121.101 20.5609C120.316 20.5609 119.635 20.3851 119.058 20.0353C118.48 19.6854 118.036 19.1824 117.726 18.528C117.416 17.8753 117.261 17.0938 117.261 16.1853V9.43737H120.192V15.6492C120.192 16.4203 120.375 17.0225 120.739 17.4559C121.103 17.8892 121.609 18.1068 122.257 18.1068C122.587 18.1068 122.887 18.0546 123.155 17.9519C123.423 17.8492 123.652 17.7013 123.846 17.5081C124.039 17.3149 124.19 17.0886 124.3 16.8275C124.41 16.5665 124.465 16.2775 124.465 15.9608V9.43737H127.396V20.3555H124.61L124.528 18.1068L125.043 17.8597C124.892 18.3679 124.62 18.8291 124.229 19.2416C123.837 19.6541 123.372 19.9778 122.836 20.2111C122.3 20.4443 121.722 20.5627 121.103 20.5627L121.101 20.5609Z" fill="#252D47"/>
<path d="M134.057 20.5577C133.011 20.5577 132.077 20.3106 131.25 19.8145C130.423 19.3185 129.774 18.6414 129.299 17.7816C128.824 16.9218 128.587 15.9628 128.587 14.9028C128.587 13.8429 128.824 12.8421 129.299 11.9823C129.774 11.1225 130.423 10.4454 131.25 9.94936C132.077 9.45332 133.011 9.20617 134.057 9.20617C135.034 9.20617 135.925 9.38892 136.731 9.75269C137.535 10.1182 138.165 10.616 138.619 11.2495L137.03 13.1902C136.837 12.9291 136.597 12.6889 136.308 12.4679C136.019 12.2486 135.706 12.0763 135.368 11.9527C135.03 11.8291 134.684 11.7664 134.325 11.7664C133.762 11.7664 133.259 11.9005 132.818 12.1685C132.378 12.4365 132.033 12.809 131.786 13.2824C131.539 13.7576 131.415 14.2902 131.415 14.8819C131.415 15.4737 131.546 15.9837 131.807 16.4501C132.068 16.9183 132.42 17.2891 132.86 17.5641C133.3 17.8391 133.789 17.9766 134.325 17.9766C134.682 17.9766 135.023 17.9243 135.347 17.8216C135.671 17.719 135.97 17.5641 136.245 17.3569C136.52 17.1498 136.781 16.9096 137.03 16.6346L138.619 18.5753C138.165 19.1671 137.521 19.6457 136.689 20.0095C135.857 20.3732 134.98 20.556 134.057 20.556V20.5577Z" fill="#252D47"/>
<path d="M138.882 12.0564V9.4352H146.105V12.0564H138.882ZM140.925 20.3534V6.66954H143.856V20.3534H140.925Z" fill="#252D47"/>
<path d="M153.534 20.3545V5.90658H156.63V20.3527H153.534V20.3545ZM154.794 14.576V11.7286H164.226V14.576H154.794ZM162.657 20.3545V5.90658H165.754V20.3527H162.657V20.3545Z" fill="#252D47"/>
<path d="M173.254 20.5593C172.07 20.5593 171.034 20.3191 170.147 19.837C169.259 19.3549 168.572 18.6952 168.083 17.8563C167.593 17.0174 167.35 16.0601 167.35 14.9879C167.35 14.1351 167.487 13.3536 167.762 12.6452C168.037 11.9368 168.422 11.3277 168.918 10.8194C169.414 10.3112 170.002 9.91438 170.683 9.63241C171.363 9.35045 172.11 9.20947 172.923 9.20947C173.666 9.20947 174.35 9.34349 174.977 9.61153C175.603 9.87957 176.146 10.259 176.608 10.7463C177.069 11.2354 177.422 11.8098 177.671 12.4694C177.92 13.1291 178.035 13.8514 178.023 14.6364L178.002 15.5449H169.23L168.754 13.7296H175.586L175.234 14.1003V13.6669C175.206 13.2822 175.086 12.9446 174.872 12.6557C174.658 12.3667 174.387 12.137 174.058 11.9647C173.727 11.7924 173.363 11.7071 172.963 11.7071C172.343 11.7071 171.825 11.8272 171.405 12.0691C170.986 12.3093 170.669 12.6539 170.455 13.1012C170.241 13.5485 170.135 14.102 170.135 14.7634C170.135 15.4248 170.272 15.9783 170.547 16.4656C170.822 16.9547 171.217 17.3289 171.734 17.59C172.249 17.8511 172.859 17.9816 173.56 17.9816C174.042 17.9816 174.481 17.9068 174.881 17.7553C175.28 17.6039 175.713 17.3428 176.181 16.9704L177.565 18.9319C177.18 19.2765 176.747 19.5724 176.265 19.8196C175.783 20.0667 175.288 20.253 174.778 20.3765C174.268 20.5001 173.76 20.5628 173.25 20.5628L173.254 20.5593Z" fill="#252D47"/>
<path d="M179.196 20.3523V9.43417H182.024L182.127 12.943L181.631 12.1998C181.81 11.6498 182.082 11.1468 182.445 10.6926C182.809 10.2383 183.243 9.878 183.746 9.60823C184.247 9.34019 184.774 9.20617 185.324 9.20617C185.571 9.20617 185.803 9.22357 186.015 9.25838C186.228 9.29319 186.41 9.34367 186.562 9.41329L185.777 12.6123C185.625 12.5444 185.429 12.4783 185.188 12.4157C184.948 12.353 184.703 12.3234 184.456 12.3234C184.139 12.3234 183.84 12.3826 183.558 12.4992C183.276 12.6158 183.028 12.7812 182.814 12.9952C182.6 13.2093 182.437 13.46 182.318 13.7489C182.202 14.0378 182.143 14.3615 182.143 14.7183V20.3523H179.191H179.196Z" fill="#252D47"/>
<path d="M192.056 20.5577C190.942 20.5577 189.951 20.314 189.083 19.825C188.216 19.3359 187.532 18.6658 187.029 17.8129C186.526 16.9601 186.275 15.9906 186.275 14.9028C186.275 13.815 186.526 12.8212 187.029 11.9614C187.532 11.1016 188.216 10.428 189.083 9.93892C189.95 9.44984 190.94 9.20617 192.056 9.20617C193.171 9.20617 194.16 9.44984 195.028 9.93892C195.895 10.428 196.579 11.1016 197.082 11.9614C197.583 12.8212 197.836 13.8011 197.836 14.9028C197.836 16.0046 197.585 16.9601 197.082 17.8129C196.579 18.6658 195.895 19.3376 195.028 19.825C194.162 20.314 193.171 20.5577 192.056 20.5577ZM192.056 18.0201C192.592 18.0201 193.074 17.8826 193.5 17.6076C193.927 17.3326 194.261 16.9618 194.501 16.4936C194.741 16.0255 194.854 15.4963 194.842 14.9046C194.856 14.285 194.743 13.7384 194.501 13.2633C194.261 12.7881 193.927 12.4174 193.5 12.1494C193.074 11.8813 192.592 11.7473 192.056 11.7473C191.52 11.7473 191.034 11.8848 190.601 12.1598C190.167 12.4348 189.83 12.8073 189.589 13.2737C189.349 13.7419 189.234 14.285 189.248 14.9046C189.234 15.4963 189.347 16.0255 189.589 16.4936C189.83 16.9618 190.167 17.3326 190.601 17.6076C191.034 17.8826 191.52 18.0201 192.056 18.0201Z" fill="#252D47"/>
<path d="M204.271 20.5593C203.088 20.5593 202.052 20.3191 201.164 19.837C200.277 19.3549 199.589 18.6952 199.1 17.8563C198.611 17.0174 198.367 16.0601 198.367 14.9879C198.367 14.1351 198.505 13.3536 198.78 12.6452C199.055 11.9368 199.439 11.3277 199.936 10.8194C200.432 10.3112 201.02 9.91438 201.7 9.63241C202.381 9.35045 203.128 9.20947 203.94 9.20947C204.684 9.20947 205.368 9.34349 205.994 9.61153C206.621 9.87957 207.164 10.259 207.625 10.7463C208.086 11.2354 208.44 11.8098 208.688 12.4694C208.937 13.1291 209.052 13.8514 209.04 14.6364L209.019 15.5449H200.247L199.772 13.7296H206.603L206.252 14.1003V13.6669C206.224 13.2822 206.104 12.9446 205.89 12.6557C205.676 12.3667 205.404 12.137 205.075 11.9647C204.745 11.7924 204.381 11.7071 203.98 11.7071C203.361 11.7071 202.842 11.8272 202.423 12.0691C202.003 12.3093 201.686 12.6539 201.472 13.1012C201.258 13.5485 201.152 14.102 201.152 14.7634C201.152 15.4248 201.29 15.9783 201.565 16.4656C201.84 16.9547 202.235 17.3289 202.752 17.59C203.267 17.8511 203.876 17.9816 204.577 17.9816C205.06 17.9816 205.498 17.9068 205.898 17.7553C206.297 17.6039 206.73 17.3428 207.199 16.9704L208.582 18.9319C208.198 19.2765 207.764 19.5724 207.282 19.8196C206.8 20.0667 206.306 20.253 205.796 20.3765C205.286 20.5001 204.778 20.5628 204.268 20.5628L204.271 20.5593Z" fill="#252D47"/>
<path d="M213.847 20.5595C212.842 20.5595 211.944 20.3941 211.154 20.0634C210.362 19.7327 209.72 19.2663 209.224 18.6606L211.06 17.0924C211.487 17.5466 211.958 17.8739 212.473 18.0723C212.989 18.2724 213.516 18.3716 214.052 18.3716C214.245 18.3716 214.423 18.3473 214.588 18.2985C214.754 18.2498 214.898 18.1819 215.022 18.0914C215.145 18.0027 215.239 17.8948 215.3 17.7712C215.361 17.6476 215.392 17.5031 215.392 17.3378C215.392 17.0349 215.269 16.8017 215.022 16.6364C214.912 16.5546 214.708 16.4606 214.412 16.3579C214.116 16.2552 213.742 16.1421 213.288 16.0167C212.587 15.8375 211.995 15.6286 211.513 15.3867C211.031 15.1465 210.639 14.868 210.336 14.5512C210.089 14.2902 209.899 13.9873 209.769 13.6427C209.638 13.2998 209.572 12.9204 209.572 12.5079C209.572 11.8482 209.765 11.2687 210.15 10.7744C210.535 10.2783 211.048 9.89367 211.687 9.61867C212.327 9.34367 213.025 9.20617 213.782 9.20617C214.346 9.20617 214.893 9.27579 215.424 9.41329C215.953 9.55079 216.449 9.74746 216.91 10.0016C217.371 10.2557 217.773 10.5551 218.118 10.8997L216.55 12.6541C216.303 12.4069 216.021 12.1894 215.704 12.0032C215.387 11.8169 215.07 11.6655 214.754 11.5489C214.437 11.4323 214.148 11.3731 213.887 11.3731C213.652 11.3731 213.443 11.394 213.257 11.4358C213.07 11.4775 212.916 11.5419 212.792 11.6324C212.668 11.7229 212.574 11.8291 212.513 11.9527C212.451 12.0763 212.421 12.2138 212.421 12.3652C212.421 12.5166 212.46 12.6576 212.534 12.7881C212.609 12.9187 212.717 13.0388 212.855 13.1501C212.992 13.2319 213.217 13.3294 213.525 13.4391C213.835 13.5487 214.237 13.6723 214.733 13.8098C215.392 13.9891 215.951 14.1875 216.404 14.4085C216.858 14.6296 217.222 14.8837 217.498 15.1726C217.745 15.4198 217.921 15.7052 218.024 16.0289C218.127 16.3527 218.179 16.699 218.179 17.0715C218.179 17.7451 217.989 18.3473 217.611 18.8781C217.232 19.4072 216.717 19.8215 216.064 20.1174C215.41 20.4133 214.672 20.5612 213.845 20.5612L213.847 20.5595Z" fill="#252D47"/>
<defs>
<clipPath id="clip0_9466_6192">
<rect width="32" height="27.2" fill="white" transform="translate(0 0.400002)"/>
</clipPath>
</defs>
</svg>
